<?xml version="1.0" standalone="no"?>
<!DOCTYPE svg PUBLIC "-//W3C//DTD SVG 20010904//EN"
 "http://www.w3.org/TR/2001/REC-SVG-20010904/DTD/svg10.dtd">
<svg version="1.0" xmlns="http://www.w3.org/2000/svg"
 width="2000.000000pt" height="328.000000pt" viewBox="0 0 2000.000000 328.000000"
 preserveAspectRatio="xMidYMid meet">

<g transform="translate(0.000000,328.000000) scale(0.100000,-0.100000)"
fill="#000000" stroke="none">
<path d="M89 3257 c-74 -49 -69 40 -69 -1227 l0 -1136 22 -44 c53 -102 209
-109 270 -11 22 35 23 45 26 309 l3 273 42 38 c23 21 59 52 79 70 l36 32 313
-387 c172 -212 326 -395 343 -405 121 -74 284 69 221 192 -13 25 -513 650
-632 791 -13 14 17 44 291 288 187 167 311 285 320 305 32 67 14 133 -50 181
-49 38 -118 39 -166 2 -18 -14 -204 -179 -413 -365 l-380 -340 -5 676 c-6 751
-2 718 -73 761 -46 29 -133 27 -178 -3z"/>
<path d="M13303 3261 c-18 -11 -40 -35 -50 -53 -17 -31 -18 -95 -18 -1185 l0
-1152 21 -28 c11 -15 36 -39 55 -51 28 -20 44 -23 92 -20 66 5 103 27 129 79
16 30 18 67 18 300 l0 267 80 72 c44 40 82 71 84 69 2 -2 145 -180 318 -394
183 -227 327 -396 342 -403 36 -16 101 -15 134 2 55 29 85 72 90 128 3 44 0
59 -20 88 -21 31 -411 514 -574 711 l-63 76 301 269 c166 148 310 283 320 299
11 18 18 49 18 77 0 41 -5 54 -36 87 -45 51 -93 68 -144 52 -28 -8 -145 -107
-442 -371 l-403 -359 -5 682 c-4 490 -8 688 -17 702 -29 51 -62 69 -131 73
-54 2 -73 -1 -99 -17z"/>
<path d="M5960 3072 c-19 -9 -45 -32 -57 -51 -22 -33 -23 -40 -23 -292 l0
-259 -77 0 c-110 -1 -152 -12 -190 -54 -28 -30 -33 -43 -33 -83 0 -104 56
-143 204 -143 l95 0 3 -477 3 -478 27 -73 c70 -192 221 -335 399 -377 35 -8
105 -15 154 -15 146 0 214 47 222 152 5 61 -16 110 -60 142 -23 17 -48 22
-142 27 -101 5 -117 8 -154 32 -23 15 -55 46 -71 69 -58 79 -60 100 -60 570
l0 428 156 0 c175 0 211 10 246 64 30 48 21 128 -19 167 -40 40 -82 48 -245
49 l-137 0 -3 259 c-3 245 -4 261 -24 288 -52 70 -139 93 -214 55z"/>
<path d="M9940 2539 c-118 -20 -196 -56 -317 -145 -21 -15 -23 -15 -28 2 -28
92 -93 139 -180 130 -53 -6 -86 -25 -119 -70 -21 -27 -21 -37 -24 -797 -3
-863 -6 -816 69 -866 34 -22 47 -25 104 -21 55 3 69 8 96 33 17 17 36 39 42
50 9 14 13 176 17 560 5 537 5 540 28 598 33 82 115 166 194 202 173 78 380
23 470 -125 42 -70 42 -74 48 -650 5 -537 6 -556 26 -590 32 -55 77 -80 143
-80 66 0 111 23 141 72 19 32 20 52 20 523 0 291 4 516 11 554 30 186 164 315
343 328 209 16 353 -95 385 -297 7 -39 11 -266 11 -565 0 -559 -2 -543 71
-593 29 -21 43 -23 103 -20 65 4 70 6 106 45 31 33 40 51 45 94 4 30 5 286 2
569 -4 489 -5 519 -26 599 -85 328 -355 506 -699 462 -163 -21 -327 -98 -425
-199 l-39 -40 -71 73 c-78 78 -156 123 -261 150 -76 19 -217 26 -286 14z"/>
<path d="M4481 2525 c-286 -63 -452 -213 -468 -427 -10 -134 31 -244 123 -334
100 -98 246 -162 492 -215 232 -49 316 -82 381 -149 123 -126 39 -295 -167
-339 -76 -16 -257 -14 -327 4 -86 22 -215 88 -272 140 -76 67 -132 81 -196 49
-71 -36 -107 -88 -107 -154 0 -57 24 -93 95 -147 113 -85 264 -146 440 -179
114 -21 388 -15 480 10 83 23 211 88 266 136 204 176 220 494 35 668 -108 100
-233 154 -507 217 -275 63 -367 104 -402 178 -24 49 -22 122 4 163 44 72 220
124 374 109 142 -13 234 -48 314 -120 49 -44 93 -65 150 -72 88 -10 161 47
161 128 0 118 -227 283 -453 330 -111 23 -319 24 -416 4z"/>
<path d="M7691 2525 c-194 -42 -322 -114 -452 -253 -141 -150 -205 -297 -230
-524 -19 -171 17 -381 89 -523 123 -244 353 -411 626 -456 111 -17 340 -7 435
21 82 23 187 73 260 122 68 47 171 154 219 228 166 255 187 635 51 920 -117
247 -332 412 -607 466 -92 18 -306 17 -391 -1z m353 -290 c98 -26 166 -65 242
-140 118 -116 174 -259 174 -444 -1 -196 -48 -320 -170 -441 -116 -117 -225
-160 -400 -160 -169 0 -287 47 -400 160 -121 121 -176 276 -167 470 14 284
174 496 422 556 71 18 230 17 299 -1z"/>
<path d="M15486 2524 c-339 -75 -585 -330 -650 -673 -21 -108 -21 -299 0 -398
72 -348 329 -602 684 -675 137 -29 348 -21 475 16 201 60 375 173 375 245 0
40 -19 77 -59 115 -45 43 -119 47 -181 12 -226 -131 -383 -160 -577 -110 -133
35 -271 134 -348 250 -39 59 -84 172 -85 212 l0 22 638 0 c587 0 640 1 662 17
67 47 78 86 62 238 -25 239 -101 404 -249 545 -88 83 -194 144 -308 175 -87
24 -347 30 -439 9z m289 -264 c184 -27 328 -157 390 -352 42 -133 107 -118
-511 -118 l-536 0 7 33 c32 147 117 276 229 348 126 82 264 111 421 89z"/>
<path d="M19065 2523 c-218 -46 -386 -169 -438 -318 -53 -152 -15 -324 97
-436 104 -104 248 -168 496 -220 269 -56 378 -108 421 -204 51 -111 -11 -218
-156 -271 -72 -26 -290 -32 -376 -10 -94 24 -198 77 -259 131 -93 83 -155 95
-232 46 -56 -36 -78 -67 -85 -120 -8 -57 11 -94 76 -152 102 -91 301 -172 490
-199 108 -16 365 -8 446 14 107 29 224 93 291 160 183 183 191 475 17 642 -99
96 -253 160 -538 225 -254 57 -350 103 -380 184 -28 71 -17 130 33 176 72 68
235 101 391 79 116 -16 177 -41 266 -110 102 -79 166 -96 239 -66 87 36 101
137 31 222 -87 106 -240 190 -410 225 -111 23 -318 24 -420 2z"/>
<path d="M1900 2511 c-19 -10 -45 -36 -58 -57 l-22 -39 3 -510 c3 -488 4 -513
25 -590 76 -278 259 -464 528 -536 107 -29 316 -31 419 -5 98 25 198 74 277
133 l66 51 7 -43 c8 -55 40 -102 85 -127 47 -26 134 -21 177 10 66 47 63 10
63 854 0 706 -1 766 -18 798 -26 53 -74 80 -142 80 -63 0 -106 -22 -144 -73
-21 -28 -21 -40 -26 -565 l-5 -537 -34 -63 c-63 -116 -189 -205 -329 -233 -39
-7 -99 -10 -155 -6 -226 14 -368 117 -443 322 -17 45 -19 97 -24 552 -5 489
-6 502 -26 530 -53 72 -148 95 -224 54z"/>
<path d="M16727 2510 c-21 -12 -47 -35 -57 -53 -42 -68 -48 -55 350 -811 l370
-703 -170 -384 c-108 -245 -170 -396 -170 -417 0 -49 27 -87 81 -116 91 -50
166 -30 210 56 11 22 243 540 515 1151 526 1183 519 1166 478 1225 -22 32
-107 72 -151 72 -53 0 -98 -31 -126 -87 -14 -26 -136 -300 -272 -608 -136
-308 -249 -562 -250 -563 -2 -2 -138 266 -303 595 -201 400 -310 608 -331 627
-41 39 -118 46 -174 16z"/>
</g>
</svg>
