<?xml version="1.0" encoding="UTF-8"?>
<svg width="4rem" height="3rem" version="1.1" viewBox="0 0 700 700" xmlns="http://www.w3.org/2000/svg" xmlns:xlink="http://www.w3.org/1999/xlink">
 <g>
  <path d="m616.68 171.76c-0.003906-0.023437-0.015625-0.042968-0.023438-0.066406-0.015625-0.066406-0.0625-0.125-0.085937-0.19141-0.011719-0.039062-0.035157-0.078125-0.050781-0.11719-0.11719-0.33594-0.23438-0.66797-0.41406-0.97266-0.078125-0.13281-0.19141-0.25391-0.28516-0.37891-0.011719-0.015625-0.023438-0.035156-0.039063-0.050781-0.089844-0.125-0.16797-0.24609-0.27344-0.36328-0.10156-0.11719-0.18359-0.24609-0.29688-0.35156-0.12891-0.12891-0.29688-0.23047-0.44141-0.34766-0.20703-0.16797-0.39844-0.35938-0.63281-0.5-0.035156-0.015625-0.074219-0.023438-0.10547-0.042969-0.027344-0.015625-0.050781-0.039062-0.078125-0.054688l-129.85-70.812c-0.42188-0.30859-0.87891-0.56641-1.3711-0.74609l-130.07-70.867c-1.6758-0.91406-3.6914-0.91406-5.3594 0l-130.63 71.191c-1.7969 0.98047-2.918 2.8672-2.918 4.918v139.09l-127.73 69.59c-0.18359 0.11328-0.33594 0.25391-0.50391 0.37109-0.15234 0.11328-0.30859 0.20703-0.44922 0.33203-0.49219 0.42578-0.91797 0.91797-1.2305 1.4766-0.015625 0.023437-0.039062 0.042968-0.054687 0.066406-0.035157 0.066406-0.035157 0.14062-0.066407 0.20703-0.25391 0.51562-0.41406 1.0586-0.50391 1.6289-0.027344 0.17188-0.054687 0.33203-0.066406 0.50391-0.011719 0.11328-0.050781 0.21875-0.050781 0.33984v142.39c0 2.0547 1.1211 3.9375 2.918 4.9219l130.65 71.191c0.26172 0.14062 0.54297 0.21875 0.81641 0.32031 0.15234 0.054687 0.29297 0.12891 0.44141 0.17188 0.46875 0.11719 0.94141 0.18359 1.418 0.18359h0.003906c0.47656 0 0.95313-0.066406 1.4102-0.18359 0.015625 0 0.035156 0 0.050781-0.011719 0.10547-0.023438 0.19531-0.089844 0.29688-0.11719 0.054687-0.023437 0.10547-0.042968 0.15625-0.066406 0.25781-0.10156 0.51953-0.16406 0.76562-0.29688l391.92-213.59c1.7969-0.97266 2.918-2.8672 2.918-4.9102l0.003906-142.38c0.011719-0.50391-0.058594-1.0039-0.19141-1.4727zm-261.09 4.793 119.47-65.117v129.66l-119.47 65.09zm0 142.39 119.47-65.09v129.62l-119.47 65.117zm-130.62 71.191 119.43-65.09v129.64l-119.43 65.078zm380.72-77.84-119.43 65.078v-129.62l119.43-65.09z"/>
  <use x="70" y="644" xlink:href="#v"/>
  <use x="90.550781" y="644" xlink:href="#c"/>
  <use x="104.359375" y="644" xlink:href="#a"/>
  <use x="123.347656" y="644" xlink:href="#j"/>
  <use x="142.242188" y="644" xlink:href="#b"/>
  <use x="155.628906" y="644" xlink:href="#a"/>
  <use x="174.617188" y="644" xlink:href="#i"/>
  <use x="204.410156" y="644" xlink:href="#h"/>
  <use x="224.453125" y="644" xlink:href="#e"/>
  <use x="252.453125" y="644" xlink:href="#g"/>
  <use x="271.578125" y="644" xlink:href="#f"/>
  <use x="300.753906" y="644" xlink:href="#u"/>
  <use x="310.351562" y="644" xlink:href="#t"/>
  <use x="319.949219" y="644" xlink:href="#e"/>
  <use x="347.949219" y="644" xlink:href="#s"/>
  <use x="70" y="672" xlink:href="#r"/>
  <use x="82.183594" y="672" xlink:href="#c"/>
  <use x="95.992188" y="672" xlink:href="#d"/>
  <use x="115.226562" y="672" xlink:href="#f"/>
  <use x="154.152344" y="672" xlink:href="#b"/>
  <use x="167.535156" y="672" xlink:href="#q"/>
  <use x="187.46875" y="672" xlink:href="#a"/>
  <use x="216.207031" y="672" xlink:href="#p"/>
  <use x="239.640625" y="672" xlink:href="#d"/>
  <use x="258.878906" y="672" xlink:href="#o"/>
  <use x="278.8125" y="672" xlink:href="#n"/>
  <use x="308.492188" y="672" xlink:href="#m"/>
  <use x="329.015625" y="672" xlink:href="#c"/>
  <use x="342.820312" y="672" xlink:href="#d"/>
  <use x="362.058594" y="672" xlink:href="#l"/>
  <use x="371.65625" y="672" xlink:href="#a"/>
  <use x="390.648438" y="672" xlink:href="#k"/>
  <use x="407.242188" y="672" xlink:href="#b"/>
 </g>
</svg>
